<?xml version="1.0" standalone="no"?>
<!DOCTYPE svg PUBLIC "-//W3C//DTD SVG 20010904//EN"
 "http://www.w3.org/TR/2001/REC-SVG-20010904/DTD/svg10.dtd">
<svg version="1.0" xmlns="http://www.w3.org/2000/svg"
 width="232.000000pt" height="232.000000pt" viewBox="0 0 232.000000 232.000000"
 preserveAspectRatio="xMidYMid meet">
<metadata>
Created by potrace 1.11, written by Peter Selinger 2001-2013
</metadata>
<g transform="translate(0.000000,232.000000) scale(0.100000,-0.100000)"
fill="#000000" stroke="none">
<path d="M2249 1946 c-2 -2 -42 -7 -89 -10 -47 -4 -101 -9 -120 -11 -19 -2
-71 -6 -115 -10 -44 -4 -92 -8 -107 -10 -15 -2 -68 -7 -118 -11 -49 -3 -90
-10 -90 -14 0 -10 35 -55 82 -106 l38 -40 67 7 c175 19 174 19 161 6 -82 -78
-184 -127 -265 -129 -91 -2 -149 9 -448 82 -154 37 -307 73 -340 80 -33 6 -76
15 -95 19 -81 17 -235 13 -326 -9 -65 -15 -464 -143 -481 -154 -4 -3 28 -131
35 -143 6 -10 67 7 245 68 349 119 361 119 860 -2 344 -84 310 -77 447 -97
147 -21 279 13 396 102 26 20 48 35 50 34 1 -2 -9 -41 -22 -87 l-24 -84 27
-36 c15 -20 43 -53 62 -74 l35 -39 28 99 c16 54 31 105 33 113 2 8 31 107 65
220 78 263 74 240 41 240 -15 0 -30 -2 -32 -4z"/>
<path d="M1498 1364 c-48 -13 -105 -32 -125 -43 -48 -24 -123 -79 -123 -89 0
-4 23 -35 52 -69 l51 -62 32 24 c64 50 181 83 268 78 61 -3 130 -34 152 -66
19 -30 30 -87 22 -119 -6 -22 -11 -23 -84 -24 -339 -2 -533 -75 -608 -229
-102 -207 6 -383 245 -402 127 -10 251 31 325 107 41 42 62 51 51 24 -3 -9 -9
-37 -12 -62 l-5 -47 110 0 c68 0 111 4 112 10 0 5 2 19 4 30 2 11 8 58 15 105
6 47 13 96 15 110 2 14 11 77 19 140 9 63 18 133 22 155 23 157 7 281 -46 343
-89 104 -291 139 -492 86z m281 -548 c11 -7 -11 -101 -32 -141 -34 -65 -84
-102 -160 -120 -136 -31 -254 23 -241 109 13 90 119 147 289 155 33 1 61 4 62
5 4 4 73 -3 82 -8z"/>
<path d="M83 1357 c-4 -7 245 -956 254 -967 2 -2 60 -5 129 -5 101 -1 127 2
138 15 7 8 117 213 246 455 128 242 241 454 251 472 10 18 15 34 11 36 -4 2
-60 3 -125 3 l-119 -1 -65 -125 c-36 -69 -91 -174 -123 -235 -31 -60 -82 -156
-111 -212 -30 -57 -56 -103 -59 -103 -5 0 -85 314 -105 410 -1 3 -4 19 -8 35
-4 17 -9 39 -11 50 -2 11 -9 39 -15 63 -6 23 -15 59 -21 80 l-10 38 -126 0
c-69 0 -128 -4 -131 -9z"/>
</g>
</svg>
